<?xml version="1.0" encoding="utf-8"?>
<!-- Generator: Adobe Illustrator 24.1.1, SVG Export Plug-In . SVG Version: 6.00 Build 0)  -->
<svg version="1.1" id="Layer_1" xmlns="http://www.w3.org/2000/svg" xmlns:xlink="http://www.w3.org/1999/xlink" x="0px" y="0px"
	 viewBox="0 0 24 30" style="enable-background:new 0 0 24 30;" xml:space="preserve">
<g>
	<path d="M19.4,14.8c-0.7-0.7-1.9-0.8-2.7-0.2l-2.3,1.7v-0.6c0-0.7-0.6-1.3-1.3-1.3H8.5v-0.2c0-0.7-0.6-1.3-1.3-1.3H5
		c-0.7,0-1.3,0.6-1.3,1.3v7.7c0,0.7,0.6,1.3,1.3,1.3h2.2c0.5,0,1-0.3,1.2-0.8h6.3c0.6,0,1.1-0.2,1.5-0.6l3.6-3.7
		c0.8-0.8,0.8-2.1,0-3L19.4,14.8z M7.1,22H5c-0.1,0-0.2-0.1-0.2-0.2v-7.7c0-0.1,0.1-0.2,0.2-0.2h2.2c0.1,0,0.2,0.1,0.2,0.2v7.7
		C7.3,21.9,7.3,22,7.1,22z M18.9,17.2l-3.6,3.7c-0.2,0.2-0.4,0.3-0.7,0.3H8.5v-5.8H13c0.1,0,0.2,0.1,0.2,0.2v0.8h-1.9
		c-0.3,0-0.6,0.3-0.6,0.6c0,0.3,0.3,0.6,0.6,0.6h2.9c0.1,0,0.2,0,0.3-0.1l2.8-2c0.4-0.3,0.9-0.2,1.2,0.1l0.3,0.3
		C19.3,16.3,19.3,16.9,18.9,17.2z"/>
	<g>
		<path d="M9,8.3c0,0-0.5,3.7,3.3,3.7C12.3,12,13.3,8.4,9,8.3z"/>
		<path d="M18.7,6.9c-5.2,0-5.7,3.2-5.6,4.9c0.9-2.5,3.3-3.1,3.3-3.1c-2.3,1.4-2.8,3.9-2.8,4C19.4,12.6,18.7,6.9,18.7,6.9z"/>
	</g>
</g>
</svg>
