<?xml version="1.0" encoding="utf-8"?>
<!-- Generator: Adobe Illustrator 24.1.1, SVG Export Plug-In . SVG Version: 6.00 Build 0)  -->
<svg version="1.1" xmlns="http://www.w3.org/2000/svg" xmlns:xlink="http://www.w3.org/1999/xlink" x="0px" y="0px"
	 viewBox="0 0 100 125" style="enable-background:new 0 0 100 125;" xml:space="preserve">
<g id="Layer_2">
</g>
<g id="Layer_1">
	<g>
		<path d="M96,94.9L79.6,77.1c-1-1.1-2.6-1.8-4.1-1.8H60.6c-1.5,0-2.7,1.2-2.7,2.7l0,0c0,1.5,1.2,2.7,2.7,2.7h15.1l16.4,18
			c0,0.1-0.1,0.1-0.1,0.1H8.1L8,98.6l16.5-17.9h14.9c1.5,0,2.7-1.2,2.7-2.7s-1.2-2.7-2.7-2.7H24.5c-1.6,0-3.1,0.7-4.1,1.8L4,94.9
			c-1.6,1.7-1.9,4.2-0.8,6.4c1,1.9,3.1,3,5.2,3h83.2c2.1,0,4.2-1.1,5.2-3C98,99.2,97.6,96.7,96,94.9z"/>
		<path d="M36.2,48.1c-1.1,1.5-1.8,3.4-1.8,5.4c0,5.2,4.2,9.4,9.4,9.4c0.9,0,1.8-0.2,2.6-0.4v23.2c0,2,1.6,3.6,3.6,3.6
			s3.6-1.6,3.6-3.6V62.6c0.8,0.2,1.7,0.4,2.6,0.4c5.2,0,9.4-4.2,9.4-9.4c0-2-0.7-3.9-1.8-5.4c1.9-1.9,3.1-4.4,3.1-7.3
			c0-3.9-2.2-7.2-5.4-8.9c-0.2-6.3-5.3-11.3-11.5-11.3s-11.3,5-11.5,11.2c-3.2,1.7-5.4,5.1-5.4,8.9C33.1,43.7,34.3,46.2,36.2,48.1z"
			/>
	</g>
</g>
</svg>
