<?xml version="1.0" encoding="utf-8"?>
<!-- Generator: Adobe Illustrator 24.1.1, SVG Export Plug-In . SVG Version: 6.00 Build 0)  -->
<svg version="1.1"
	 id="Layer_1" xmlns:cc="http://creativecommons.org/ns#" xmlns:dc="http://purl.org/dc/elements/1.1/" xmlns:inkscape="http://www.inkscape.org/namespaces/inkscape" xmlns:rdf="http://www.w3.org/1999/02/22-rdf-syntax-ns#" xmlns:sodipodi="http://sodipodi.sourceforge.net/DTD/sodipodi-0.dtd" xmlns:svg="http://www.w3.org/2000/svg"
	 xmlns="http://www.w3.org/2000/svg" xmlns:xlink="http://www.w3.org/1999/xlink" x="0px" y="0px" viewBox="0 0 100 125"
	 style="enable-background:new 0 0 100 125;" xml:space="preserve">
<g transform="translate(0,-952.36218)">
	<path d="M59.4,974.4c3,1,4,1.9,4,4.8c3.3,0.6,5,2.8,5.3,5.3c-2.1,0.5-4.1,3-4.6,4.9c-1.5,0.6-2.8,1.6-3.5,3.1
		c-0.9,1.8-0.8,4.2,0.4,6.3c0,1.4,0.2,2.4,0.8,3.5c-1,0.6-2,1.1-3.4,1.1c-1,2.9-3,3.9-5.9,2.9c-0.5,0.3-1,0.6-1.4,0.8l0.4,8.6
		l12-14.9c-0.4-0.9-0.6-1.9-0.5-2.8c-2.3-3.4,0-6.8,2.9-7.3c1.1-4.8,5.8-5.6,9.3-4.5c1.8-0.6,4-0.9,5.8,2.2c1.8,0.6,2.3,1.1,2.3,2.8
		c1.8,0,2.9,1.1,2.9,2.8c1.8,1.7,2.3,3.4,0.6,5.7c0.1,2.9-2.4,6.4-6.4,5.7c-0.9,2.3-5.1,2.8-7.6,1.7c-3.1,0.3-5.3-0.7-6.3-3
		l-5.1,8.6l6.6-1.6c-0.1-0.9,0.1-1.6,0.7-2.3c1.4,0.5,2.7,0.5,4,0.3c1.6,0.5,3.3,0.7,4.9,0.4c1.5-0.3,3-0.9,4-2.2
		c1.5-0.1,2.9-0.4,4.1-1.2c1.3,0.7,2.8,2.1,2.9,3.7c1.5,1.2,2,2.5,0.5,4.1c0.1,2.1-2.1,4.7-5.4,4.1c-0.7,1.7-4.3,2-6.4,1.2
		c-1.8,0.4-4.4,0-4.9-2c-1.2-0.3-2.3-1.2-2.9-2.3l-5.9,1.8l-10,9l1,18l1.7-2.3c-0.4-0.5-0.7-1.1-0.7-1.7c-2-2-1-4,1-5
		c1.1-2.5,5-2,5,0c2,0,4,2,3,3c2,4-1,6-4,5c-0.9,0.5-2,0.3-3-0.2l-3,4.2l1,13h-12l1-26l-16.2-9.7c-0.5,1.7-2.8,2.7-4.9,2.5
		c-1.7,0.9-5.3,1.5-6.3-0.4c-2.6,0.5-5.6-0.7-5.9-2.6c-2.4-1.4-0.6-6.1,1.4-6.6c-1-3.9,4.5-6.4,7.9-5.2c1.8-1.2,4-0.6,5.3,0.6
		c1.6-0.7,3.8,0.1,4.6,2.3c1.3,2,1.1,4,0.3,5.1l4.8,0.9l-5-9.5c-0.1,0-0.3,0-0.4,0c-1.1-0.8-2.5-1.1-3.8-0.9
		c-1.5-0.9-2.8-1.3-4.3-1.2c-0.1-0.1-0.1-0.3-0.1-0.4c-2.6-0.2-5.2-2.1-5-4c-2-2,1-6,3-6c0-2.7,2.8-4.1,5.6-4
		c2.1,0.2,3.5,0.9,5.1,1.8c-0.3,2.4,1,4.9,3.6,6.2c0.8,2.3,2.5,3.9,4.3,4.8c-0.6,1.3-1.9,2.3-3.8,2.2l10.9,12.9l1.1-15.8
		c-0.3-0.2-0.7-0.4-1-0.6c-3,1-8.9,0-9.9-4.9c-3-1-4-3.9-3-5.8c-2-1-3.9-1.9-3.9-4.8c-4-5.8,0-11.7,4.9-12.6c0-2.9,2-4.8,4-5.8
		c1-1.9,4-1.9,5.9-1c1-1.9,3-1.9,5.9-1C53.8,968.9,57.6,971.3,59.4,974.4L59.4,974.4z"/>
</g>
</svg>
